<?xml version="1.0" standalone="no"?><svg xmlns="http://www.w3.org/2000/svg" viewBox="0 0 1440 320"><path fill="#0D9491" fill-opacity="1" d="M0,192L20,160C40,128,80,64,120,74.7C160,85,200,171,240,208C280,245,320,235,360,234.7C400,235,440,245,480,234.7C520,224,560,192,600,181.3C640,171,680,181,720,197.3C760,213,800,235,840,224C880,213,920,171,960,133.3C1000,96,1040,64,1080,69.3C1120,75,1160,117,1200,144C1240,171,1280,181,1320,170.7C1360,160,1400,128,1420,112L1440,96L1440,320L1420,320C1400,320,1360,320,1320,320C1280,320,1240,320,1200,320C1160,320,1120,320,1080,320C1040,320,1000,320,960,320C920,320,880,320,840,320C800,320,760,320,720,320C680,320,640,320,600,320C560,320,520,320,480,320C440,320,400,320,360,320C320,320,280,320,240,320C200,320,160,320,120,320C80,320,40,320,20,320L0,320Z"></path></svg>